<svg id="Calque_1" data-name="Calque 1" xmlns="http://www.w3.org/2000/svg" viewBox="0 0 16 16"><defs><style>.cls-1{fill:#fff;}</style></defs><rect class="cls-1" width="16" height="16" rx="3.49"/><path d="M10.13,11.08a4.76,4.76,0,0,1-1.41,2.63,3.13,3.13,0,0,1-1.41.84,1.22,1.22,0,0,1-1.19-.21,1.23,1.23,0,0,1-.36-1.25.8.8,0,0,1,.66-.57A2.31,2.31,0,0,0,8.2,10.69a13.54,13.54,0,0,0,.09-3c0-.7-.15-1.39-.21-2.09a2.15,2.15,0,0,1,.06-.67.68.68,0,0,1,.66-.49c.93-.14,1.07,1,1.15,1.35A15.59,15.59,0,0,1,10.13,11.08Z"/><path d="M8,2c0-.49.32-.78.87-.79A.73.73,0,0,1,9.7,2a.85.85,0,0,1-.89.88C8.28,2.91,8,2.59,8,2Z"/></svg>